# xmcd
#
# Track frame offsets:
#	225
#	16213
#	27002
#	41543
#	57299
#	69161
#	78989
#	93562
#	107166
#	120773
#	131443
#	141186
#	155131
#	168010
#
# Disc length: 2362 seconds
#
# Revision: 0
# Processed by: cddbd v1.4PL0 Copyright (c) Steve Scherf et al.
# Submitted via: audiograbber 1.81.02
#
DISCID=a709370e
DTITLE=The Nashville Session Singers and Guitars - Country Christmas
DYEAR=1900
DGENRE=Pop
TTITLE0=Blue Christmas
TTITLE1=Jingle Bells
TTITLE2=The Christmas Song
TTITLE3=Mary's Boy Child
TTITLE4=God Rest ye merry Gentlemen
TTITLE5=Winter Wonderland
TTITLE6=The little Drummer Boy
TTITLE7=Happy under the Christmas Tree
TTITLE8=If came upon a Midnight Clear
TTITLE9=Silent Night
TTITLE10=O come all ye faithful
TTITLE11=The twelve Days of Christmas
TTITLE12=O Holy Night
TTITLE13=We wish you a merry Christmas
EXTD=
EXTT0=
EXTT1=
EXTT2=
EXTT3=
EXTT4=
EXTT5=
EXTT6=
EXTT7=
EXTT8=
EXTT9=
EXTT10=
EXTT11=
EXTT12=
EXTT13=
PLAYORDER=
